<svg width="27" height="14" viewBox="0 0 27 14" fill="none" xmlns="http://www.w3.org/2000/svg">
<path d="M22.5086 4.3382H20.495C19.8221 3.3502 18.9268 2.52429 17.8837 1.93525C16.7157 1.27565 15.3895 0.927063 14.0483 0.927063H13.48C13.0678 0.927063 12.7337 1.2612 12.7337 1.67337V4.3382H4.4514C2.63292 4.3382 1.12603 5.69384 0.88574 7.44735C0.883043 7.46429 0.880731 7.48122 0.879189 7.49861C0.861653 7.64294 0.85144 7.78936 0.85144 7.93831V10.792C0.85144 11.2041 1.18558 11.5383 1.59775 11.5383H4.20899C4.541 12.8209 5.70817 13.7707 7.09308 13.7707C8.47798 13.7707 9.64516 12.8209 9.97714 11.5383H16.9829C17.3151 12.8209 18.482 13.7707 19.8669 13.7707C21.2519 13.7707 22.4188 12.8209 22.751 11.5383H25.3622C25.7744 11.5383 26.1086 11.2041 26.1086 10.792V7.93831C26.1086 5.95317 24.4936 4.3382 22.5086 4.3382ZM14.2264 2.42237C15.8758 2.46961 17.4403 3.1731 18.5751 4.3382H14.2264V2.42237ZM2.34407 8.30869H3.49678C3.90896 8.30869 4.2431 7.97456 4.2431 7.56234C4.2431 7.15021 3.90896 6.81607 3.49678 6.81607H2.66914C3.04279 6.22468 3.70181 5.83097 4.4514 5.83097H12.7337V10.0456H9.97714C9.64494 8.7631 8.47798 7.81306 7.09308 7.81306C5.70817 7.81306 4.5412 8.7631 4.20899 10.0456H2.34407V8.30869ZM8.57916 10.792C8.57916 11.6115 7.91259 12.2781 7.09308 12.2781C6.27354 12.2781 5.607 11.6115 5.607 10.792C5.607 9.97247 6.27354 9.30591 7.09308 9.30591C7.91259 9.30591 8.57916 9.97247 8.57916 10.792ZM21.353 10.792C21.353 11.6115 20.6865 12.2781 19.8669 12.2781C19.0474 12.2781 18.3809 11.6115 18.3809 10.792C18.3809 9.97247 19.0474 9.30591 19.8669 9.30591C20.6865 9.30591 21.353 9.97247 21.353 10.792ZM22.751 10.0456C22.419 8.7631 21.2519 7.81306 19.8669 7.81306C18.482 7.81306 17.3149 8.7631 16.9829 10.0456H14.2264V5.83097H22.5086C23.2449 5.83097 23.8941 6.21101 24.2711 6.78487H23.116C22.7038 6.78487 22.3697 7.11901 22.3697 7.53114C22.3697 7.94336 22.7038 8.27764 23.116 8.27764H24.616V10.0456H22.751Z" fill="white"/>
</svg>
