<svg width="110" height="111" viewBox="0 0 110 111" fill="none" xmlns="http://www.w3.org/2000/svg">
<g clip-path="url(#clip0_1_610)">
<path d="M17.1875 84.2779V25.8227C17.1875 13.9621 26.779 4.34717 38.6109 4.34717H25.5664C13.7008 4.34717 4.08203 13.9659 4.08203 25.8315V84.2691C4.08203 96.1344 13.7008 105.753 25.5664 105.753H38.6109C26.779 105.753 17.1875 96.1385 17.1875 84.2779Z" fill="#CEE1F2"/>
<path d="M72.4023 104.556C70.1826 105.331 67.7967 105.753 65.3125 105.753H25.7812C13.9156 105.753 4.29688 96.1344 4.29688 84.2691V25.8315C4.29688 13.9659 13.9156 4.34717 25.7812 4.34717H65.3125C77.1779 4.34717 86.7969 13.9659 86.7969 25.8315V48.3901M54.7852 82.3355H71.1133M21.4844 82.1206L25.4341 86.2117C27.1343 87.9184 29.8912 87.9184 31.5915 86.2117L39.7461 77.8237" stroke="#405FF2" stroke-width="5" stroke-miterlimit="10" stroke-linecap="round" stroke-linejoin="round"/>
<path d="M105.047 70.1132C100.32 68.275 97.1951 68.0125 94.8535 68.0125C90.5029 68.0125 87.0117 71.5393 87.0117 75.8901C87.0117 80.2409 90.9148 83.7678 96.6917 83.7678C101.681 83.7678 105.703 87.2947 105.703 91.6455C105.703 95.9961 101.961 99.5232 97.6106 99.5232C95.5763 99.5232 91.0458 98.8627 86.582 97.0883M96.6797 68.0125V61.0659M96.6797 99.523V105.753M57.793 57.8433V59.562M34.1602 57.8433V59.562" stroke="#FF5CF4" stroke-width="5" stroke-miterlimit="10" stroke-linecap="round" stroke-linejoin="round"/>
<path d="M68.5352 36.7886H68.1835C68.1734 36.7649 68.1661 36.7405 68.1557 36.717L64.3038 28.1706C64.3002 28.1626 64.2967 28.1549 64.2931 28.1469C62.5023 24.237 58.9291 21.372 54.734 20.4832C52.2427 19.9556 49.1996 19.6011 45.8829 19.6011C42.6308 19.6011 39.6816 19.9431 37.2649 20.4523C33.0507 21.3405 29.4639 24.208 27.6706 28.1231C27.6669 28.131 27.6635 28.139 27.6598 28.1469L23.7974 36.7168C23.7869 36.7402 23.7798 36.7647 23.7697 36.7884H23.418C21.0448 36.7884 19.1211 38.7121 19.1211 41.0852C19.1211 43.4584 21.0448 45.3821 23.418 45.3821V49.3533C23.418 54.864 27.8339 59.3472 33.2617 59.3472H58.6912C64.1193 59.3472 68.5352 54.864 68.5352 49.3535V45.3823C70.9083 45.3823 72.832 43.4586 72.832 41.0855C72.832 38.7123 70.9083 36.7886 68.5352 36.7886ZM35.4885 31.6918C36.1541 30.2472 37.4799 29.1896 39.0369 28.8615C40.6093 28.5302 42.9015 28.1948 45.8831 28.1948C48.9326 28.1948 51.3212 28.5448 52.953 28.8905C54.4951 29.2173 55.811 30.273 56.4755 31.7157L58.7617 36.7886H33.1914L35.4885 31.6918ZM35.0195 53.1167C32.1718 53.1167 29.8633 50.8082 29.8633 47.9605C29.8633 45.1127 32.1718 42.8042 35.0195 42.8042C37.8673 42.8042 40.1758 45.1127 40.1758 47.9605C40.1758 50.8082 37.8673 53.1167 35.0195 53.1167ZM56.9336 53.1167C54.0858 53.1167 51.7773 50.8082 51.7773 47.9605C51.7773 45.1127 54.0858 42.8042 56.9336 42.8042C59.7813 42.8042 62.0898 45.1127 62.0898 47.9605C62.0898 50.8082 59.7813 53.1167 56.9336 53.1167Z" fill="#FF5CF4"/>
</g>
<defs>
<clipPath id="clip0_1_610">
<rect width="110" height="110" fill="white" transform="translate(0 0.050293)"/>
</clipPath>
</defs>
</svg>
