<svg width="110" height="111" viewBox="0 0 110 111" fill="none" xmlns="http://www.w3.org/2000/svg">
<g clip-path="url(#clip0_1_592)">
<g clip-path="url(#clip1_1_592)">
<path d="M43.1686 14.8745C36.3829 14.8745 30.2324 18.867 27.4699 25.0648L16.292 50.1433C9.59104 50.6037 4.29688 56.1817 4.29688 62.9995V75.8901C4.29688 81.8228 9.10636 86.6323 15.0391 86.6323H17.9835C17.9994 85.8056 18.0204 84.9791 18.0469 84.1526C17.3476 82.7271 16.9533 81.1248 16.9533 79.4299L16.7578 71.8081C16.7578 66.1715 17.9046 60.9944 22.0885 60.1515C24.0773 59.7509 25.7424 58.3959 26.5573 56.5379L40.3605 25.0648C43.1228 18.867 49.2733 14.8745 56.0592 14.8745H43.1686Z" fill="#CEE1F2"/>
<path d="M94.9609 86.6323C100.894 86.6323 105.703 81.8228 105.703 75.8901V62.9995C105.703 55.8802 99.9318 50.1089 92.8125 50.1089L79.5736 24.3008C76.6474 18.5191 70.7184 14.8745 64.2383 14.8745H43.1686C36.3829 14.8745 30.2324 18.867 27.4699 25.0648L16.292 50.1433C9.59104 50.6037 4.29688 56.1817 4.29688 62.9995V75.8901C4.29688 81.8228 9.10636 86.6323 15.0391 86.6323" stroke="#405FF2" stroke-width="5" stroke-miterlimit="10" stroke-linecap="round" stroke-linejoin="round"/>
<path d="M38.0269 95.2261C42.7731 95.2261 46.6207 91.3785 46.6207 86.6323C46.6207 81.8861 42.7731 78.0386 38.0269 78.0386C33.2807 78.0386 29.4332 81.8861 29.4332 86.6323C29.4332 91.3785 33.2807 95.2261 38.0269 95.2261Z" stroke="#405FF2" stroke-width="5" stroke-miterlimit="10" stroke-linecap="round" stroke-linejoin="round"/>
<path d="M63.1641 86.6323H49.8433" stroke="#405FF2" stroke-width="5" stroke-miterlimit="10" stroke-linecap="round" stroke-linejoin="round"/>
<path d="M71.9727 95.2261C76.7189 95.2261 80.5664 91.3785 80.5664 86.6323C80.5664 81.8861 76.7189 78.0386 71.9727 78.0386C67.2265 78.0386 63.3789 81.8861 63.3789 86.6323C63.3789 91.3785 67.2265 95.2261 71.9727 95.2261Z" stroke="#405FF2" stroke-width="5" stroke-miterlimit="10" stroke-linecap="round" stroke-linejoin="round"/>
<path d="M51.5608 66.8667L63.5304 55.2602C65.9362 52.909 64.2729 48.8215 60.9101 48.8215H49.9475C46.5786 48.8215 44.9182 44.7208 47.3367 42.3737L59.7328 30.3433" stroke="#FF5CF3" stroke-width="5" stroke-miterlimit="10" stroke-linecap="round" stroke-linejoin="round"/>
</g>
</g>
<defs>
<clipPath id="clip0_1_592">
<rect width="110" height="110" fill="white" transform="translate(0 0.050293)"/>
</clipPath>
<clipPath id="clip1_1_592">
<rect width="110" height="110" fill="white" transform="translate(0 0.050293)"/>
</clipPath>
</defs>
</svg>
