<svg width="24" height="15" viewBox="0 0 24 15" fill="none" xmlns="http://www.w3.org/2000/svg">
<path d="M19.2525 4.90245H18.3019C18.1949 4.90314 18.0889 4.88265 17.99 4.84219C17.8909 4.80174 17.8009 4.74217 17.725 4.66685L15.5637 2.50563C15.0308 1.97263 14.3972 1.55091 13.6997 1.26498C13.0023 0.97903 12.255 0.834569 11.5013 0.839991H4.6275C3.55006 0.839991 2.51675 1.268 1.75488 2.02983C0.993016 2.79171 0.565002 3.82506 0.565002 4.90245V8.96495C0.565002 9.61144 0.821814 10.2315 1.27893 10.6886C1.73605 11.1457 2.35604 11.4025 3.0025 11.4025C3.0025 12.1567 3.30211 12.88 3.83542 13.4133C4.36873 13.9466 5.09205 14.2462 5.84625 14.2462C6.60044 14.2462 7.32378 13.9466 7.85708 13.4133C8.39039 12.88 8.69 12.1567 8.69 11.4025H14.4588C14.5486 12.0823 14.8824 12.7063 15.3981 13.1583C15.9138 13.6103 16.5761 13.8595 17.2619 13.8595C17.9476 13.8595 18.61 13.6103 19.1256 13.1583C19.6414 12.7063 19.9751 12.0823 20.065 11.4025H20.8775C21.524 11.4025 22.1439 11.1457 22.6011 10.6886C23.0582 10.2315 23.315 9.61144 23.315 8.96495C23.315 7.88756 22.887 6.85421 22.1251 6.09233C21.3632 5.33053 20.33 4.90245 19.2525 4.90245ZM11.5419 2.46495C12.0757 2.46403 12.6045 2.56834 13.0981 2.77183C13.5916 2.97539 14.0402 3.27424 14.4181 3.65124L15.6694 4.90245H5.635C5.48358 4.90352 5.33488 4.86223 5.20567 4.78331C5.07646 4.70432 4.97189 4.59083 4.90375 4.45563L3.96125 2.57063C4.17674 2.50204 4.40136 2.46641 4.6275 2.46495H11.5419ZM2.19 8.96495V4.90245C2.19045 4.40906 2.3406 3.92745 2.62063 3.52124L3.43313 5.14624C3.63244 5.56079 3.94496 5.91041 4.33459 6.15481C4.72422 6.39929 5.17506 6.52845 5.635 6.52745H10.315V9.77745H8.40561C8.17742 9.29148 7.81548 8.88045 7.36224 8.59262C6.909 8.30471 6.38319 8.15184 5.84625 8.15184C5.30931 8.15184 4.78347 8.30471 4.33023 8.59262C3.877 8.88045 3.5151 9.29148 3.28687 9.77745H3.0025C2.78702 9.77745 2.58035 9.69188 2.42798 9.53955C2.2756 9.38715 2.19 9.18045 2.19 8.96495ZM5.84625 12.215C5.60521 12.215 5.36957 12.1435 5.16915 12.0096C4.96873 11.8757 4.81252 11.6853 4.72028 11.4626C4.62803 11.24 4.6039 10.9949 4.65092 10.7585C4.69795 10.522 4.81402 10.3049 4.98447 10.1344C5.15491 9.96404 5.37207 9.84796 5.60848 9.80093C5.8449 9.7539 6.08995 9.77799 6.31265 9.87029C6.53534 9.96251 6.7257 10.1187 6.8596 10.3192C6.9935 10.5195 7.065 10.7552 7.065 10.9962C7.065 11.3195 6.93661 11.6295 6.70804 11.858C6.47948 12.0866 6.16949 12.215 5.84625 12.215ZM17.2212 12.215C16.9802 12.215 16.7446 12.1435 16.5441 12.0096C16.3437 11.8757 16.1875 11.6853 16.0953 11.4626C16.003 11.24 15.9789 10.9949 16.0259 10.7585C16.0729 10.522 16.189 10.3049 16.3595 10.1344C16.5299 9.96404 16.7471 9.84796 16.9835 9.80093C17.2199 9.7539 17.4649 9.77799 17.6877 9.87029C17.9104 9.96251 18.1007 10.1187 18.2346 10.3192C18.3685 10.5195 18.44 10.7552 18.44 10.9962C18.44 11.3195 18.3116 11.6295 18.083 11.858C17.8545 12.0866 17.5445 12.215 17.2212 12.215ZM20.8775 9.77745H19.7806C19.5524 9.29148 19.1905 8.88045 18.7372 8.59262C18.284 8.30471 17.7582 8.15184 17.2212 8.15184C16.6843 8.15184 16.1585 8.30471 15.7053 8.59262C15.252 8.88045 14.8901 9.29148 14.6619 9.77745H11.94V6.52745H19.2525C19.5933 6.52929 19.9298 6.60255 20.2405 6.74249C20.5512 6.8825 20.8291 7.08599 21.0562 7.33995H20.8775C20.662 7.33995 20.4554 7.4256 20.303 7.57793C20.1506 7.73034 20.065 7.93704 20.065 8.15245C20.065 8.36795 20.1506 8.57465 20.303 8.72705C20.4554 8.87938 20.662 8.96495 20.8775 8.96495H21.69C21.69 9.18045 21.6044 9.38715 21.452 9.53955C21.2996 9.69188 21.093 9.77745 20.8775 9.77745Z" fill="white"/>
</svg>
