<svg width="24" height="17" viewBox="0 0 24 17" fill="none" xmlns="http://www.w3.org/2000/svg">
<path d="M22.6936 7.38132L19.4543 6.08613L17.5716 1.69297C17.1865 0.795148 16.3074 0.215027 15.3308 0.215027H7.87852C6.79628 0.215027 5.83184 0.942216 5.53447 1.98303L4.41484 5.90253H2.58997C1.69378 5.90253 0.964966 6.63137 0.964966 7.52753V12.4025C0.964966 13.2987 1.69378 14.0275 2.58997 14.0275H4.33034C4.69353 15.425 5.95534 16.465 7.46497 16.465C8.97457 16.465 10.2364 15.425 10.5996 14.0275H14.0804C14.4435 15.425 15.7054 16.465 17.215 16.465C18.7246 16.465 19.9864 15.425 20.3496 14.0275H22.09C22.9861 14.0275 23.715 13.2987 23.715 12.4025V8.89008C23.715 8.22142 23.3144 7.62908 22.6936 7.38132ZM7.46497 14.84C6.56878 14.84 5.83997 14.1112 5.83997 13.215C5.83997 12.3189 6.56878 11.59 7.46497 11.59C8.36112 11.59 9.08997 12.3189 9.08997 13.215C9.08997 14.1112 8.36112 14.84 7.46497 14.84ZM17.215 14.84C16.3188 14.84 15.59 14.1112 15.59 13.215C15.59 12.3189 16.3188 11.59 17.215 11.59C18.1111 11.59 18.84 12.3189 18.84 13.215C18.84 14.1112 18.1111 14.84 17.215 14.84ZM22.09 12.4025H20.3496C19.9864 11.005 18.7246 9.96503 17.215 9.96503C15.7054 9.96503 14.4435 11.005 14.0804 12.4025H10.5996C10.2364 11.005 8.97457 9.96503 7.46497 9.96503C5.95534 9.96503 4.69353 11.005 4.33034 12.4025H2.58997V7.52753H5.02747C5.38984 7.52753 5.70916 7.28703 5.80828 6.93847L7.09607 2.4299C7.19602 2.08215 7.51697 1.84003 7.87852 1.84003H15.3308C15.6558 1.84003 15.9491 2.0334 16.0775 2.3324L18.0925 7.03513C18.177 7.23342 18.337 7.38942 18.5369 7.46987L22.09 8.89008V12.4025Z" fill="white"/>
</svg>
