<svg width="106" height="26" viewBox="0 0 106 26" fill="none" xmlns="http://www.w3.org/2000/svg">
<path d="M6.21 0.72C10.2 0.72 11.915 2.575 11.915 6.355V7.23C11.915 9.75 11.145 11.36 9.43 12.165C11.495 12.97 12.3 14.825 12.3 17.415V19.41C12.3 23.19 10.305 25.22 6.455 25.22H0.400002V0.72H6.21ZM5.965 14.195H4.25V21.72H6.455C7.75 21.72 8.45 21.125 8.45 19.305V17.17C8.45 14.895 7.715 14.195 5.965 14.195ZM6.105 4.22H4.25V10.695H5.755C7.19 10.695 8.065 10.065 8.065 8.105V6.74C8.065 4.99 7.47 4.22 6.105 4.22ZM19.9038 6.355V19.585C19.9038 21.335 20.6738 22 21.8988 22C23.1238 22 23.8938 21.335 23.8938 19.585V6.355C23.8938 4.605 23.1238 3.94 21.8988 3.94C20.6738 3.94 19.9038 4.605 19.9038 6.355ZM16.0538 19.34V6.6C16.0538 2.68 18.1188 0.440002 21.8988 0.440002C25.6788 0.440002 27.7438 2.68 27.7438 6.6V19.34C27.7438 23.26 25.6788 25.5 21.8988 25.5C18.1188 25.5 16.0538 23.26 16.0538 19.34ZM40.758 0.72H44.328L40.303 12.62L44.608 25.22H40.548L37.398 15.525L34.213 25.22H30.608L34.913 12.62L30.888 0.72H34.878L37.783 9.75L40.758 0.72ZM55.2844 16.085H58.9244V19.34C58.9244 23.26 56.9644 25.5 53.1844 25.5C49.4044 25.5 47.4444 23.26 47.4444 19.34V6.6C47.4444 2.68 49.4044 0.440002 53.1844 0.440002C56.9644 0.440002 58.9244 2.68 58.9244 6.6V8.98H55.2844V6.355C55.2844 4.605 54.5144 3.94 53.2894 3.94C52.0644 3.94 51.2944 4.605 51.2944 6.355V19.585C51.2944 21.335 52.0644 21.965 53.2894 21.965C54.5144 21.965 55.2844 21.335 55.2844 19.585V16.085ZM71.5504 0.72L75.4704 25.22H71.5854L70.9204 20.775H66.1954L65.5304 25.22H61.9954L65.9154 0.72H71.5504ZM68.5404 5.06L66.6854 17.45H70.3954L68.5404 5.06ZM90.9833 25.22H87.0633C86.8533 24.59 86.7133 24.205 86.7133 22.21V18.36C86.7133 16.085 85.9433 15.245 84.1933 15.245H82.8633V25.22H79.0133V0.72H84.8233C88.8133 0.72 90.5283 2.575 90.5283 6.355V8.28C90.5283 10.8 89.7233 12.445 88.0083 13.25C89.9333 14.055 90.5633 15.91 90.5633 18.465V22.245C90.5633 23.435 90.5983 24.31 90.9833 25.22ZM84.7183 4.22H82.8633V11.745H84.3683C85.8033 11.745 86.6783 11.115 86.6783 9.155V6.74C86.6783 4.99 86.0833 4.22 84.7183 4.22ZM94.3553 6.6C94.3553 2.68 96.2803 0.440002 100.025 0.440002C103.77 0.440002 105.695 2.68 105.695 6.6V7.37H102.055V6.355C102.055 4.605 101.355 3.94 100.13 3.94C98.9053 3.94 98.2053 4.605 98.2053 6.355C98.2053 11.395 105.73 12.34 105.73 19.34C105.73 23.26 103.77 25.5 99.99 25.5C96.2103 25.5 94.2503 23.26 94.2503 19.34V17.835H97.8903V19.585C97.8903 21.335 98.6603 21.965 99.885 21.965C101.11 21.965 101.88 21.335 101.88 19.585C101.88 14.545 94.3553 13.6 94.3553 6.6Z" fill="white"/>
</svg>
