<svg width="26" height="13" viewBox="0 0 26 13" fill="none" xmlns="http://www.w3.org/2000/svg">
<path d="M22.921 5.29053L18.561 4.5635C18.306 4.14943 17.7993 3.40041 17.0624 2.64997C15.5917 1.15215 13.8984 0.360474 12.1656 0.360474H5.06527C3.91193 0.360474 2.8426 0.984058 2.27455 1.98787L0.317964 5.44572C0.314807 5.45129 0.312439 5.45708 0.30943 5.46273C0.158085 5.73357 0.0714111 6.04528 0.0714111 6.37704V10.0207C0.0714111 10.4293 0.402714 10.7606 0.811364 10.7606H3.18125C3.52908 11.6707 4.41564 12.3195 5.45222 12.3195C6.4888 12.3195 7.37533 11.6707 7.72321 10.7606H16.9135C17.2613 11.6707 18.1478 12.3195 19.1844 12.3195C20.221 12.3195 21.1075 11.6707 21.4553 10.7606H24.5886C24.9972 10.7606 25.3286 10.4293 25.3286 10.0207V8.06176C25.3286 6.67366 24.2943 5.48435 22.921 5.29053ZM16.7096 4.49635H11.3792V1.84041H12.1656C14.263 1.84041 15.8469 3.39097 16.7096 4.49635ZM6.44045 1.84041H9.89934V4.49635H6.44045V1.84041ZM3.56257 2.71668C3.85115 2.20671 4.38007 1.87933 4.96054 1.84397V4.49635H2.55554L3.56257 2.71668ZM5.45222 10.8396C4.92917 10.8396 4.50365 10.4212 4.50365 9.90687C4.50365 9.39259 4.92917 8.97414 5.45222 8.97414C5.97527 8.97414 6.40079 9.39259 6.40079 9.90687C6.40079 10.4212 5.97527 10.8396 5.45222 10.8396ZM19.1844 10.8396C18.6613 10.8396 18.2358 10.4212 18.2358 9.90687C18.2358 9.39259 18.6613 8.97414 19.1844 8.97414C19.7074 8.97414 20.1329 9.39259 20.1329 9.90687C20.1329 10.4212 19.7074 10.8396 19.1844 10.8396ZM21.5294 9.28064C21.2511 8.25305 20.3054 7.49422 19.1844 7.49422C18.0633 7.49422 17.1177 8.25305 16.8393 9.28064H7.7972C7.51893 8.25305 6.5733 7.49422 5.45222 7.49422C4.33114 7.49422 3.38552 8.25305 3.10715 9.28064H1.55132V6.37704C1.55132 6.15604 1.73108 5.97627 1.95208 5.97627H18.0359L22.6873 6.75196C22.6945 6.75315 22.7016 6.75426 22.7088 6.75523C22.8346 6.77246 22.9544 6.8076 23.0659 6.85752C22.7563 6.94607 22.5295 7.23051 22.5295 7.56851C22.5295 7.97715 22.8608 8.30847 23.2694 8.30847H23.8486V9.28072L21.5294 9.28064Z" fill="white"/>
</svg>
