<svg width="27" height="18" viewBox="0 0 27 18" fill="none" xmlns="http://www.w3.org/2000/svg">
<path d="M25.2922 12.7314H24.4444V8.49229C24.4444 7.08974 23.3033 5.9488 21.9009 5.9488H19.1207L18.0048 2.60092C17.6579 1.56072 16.6882 0.861816 15.5917 0.861816C15.4597 0.861816 6.29384 0.861816 6.07477 0.861816C4.96946 0.861816 4.02711 1.57067 3.67713 2.55745H2.6835C1.28102 2.55745 0.140015 3.69845 0.140015 5.10089V8.49229C0.140015 9.89476 1.28102 11.0357 2.6835 11.0357H3.53134V12.7314H2.6835C2.21529 12.7314 1.83565 13.111 1.83565 13.5792C1.83565 14.0475 2.21524 14.4271 2.6835 14.4271C3.47751 14.4271 4.43032 14.4271 5.22698 14.4271C5.22698 16.297 6.74833 17.8184 8.61831 17.8184C10.4882 17.8184 12.0096 16.297 12.0096 14.4271H15.9661C15.9661 16.297 17.4875 17.8184 19.3575 17.8184C21.2275 17.8184 22.7488 16.297 22.7488 14.4271C23.5457 14.4271 24.4988 14.4271 25.2923 14.4271C25.7605 14.4271 26.1401 14.0475 26.1401 13.5792C26.1401 13.111 25.7604 12.7314 25.2922 12.7314ZM3.53134 9.34004H2.6835C2.216 9.34004 1.83565 8.95968 1.83565 8.49221V5.10089C1.83565 4.63335 2.216 4.25307 2.6835 4.25307H3.53134C3.53134 4.79325 3.53134 8.81622 3.53134 9.34004ZM12.0096 2.55745H13.4227H15.5917C15.9573 2.55745 16.2805 2.79044 16.3961 3.13711L17.3332 5.94872H12.0096V2.55745ZM5.22698 3.40524C5.22698 2.93775 5.60733 2.5574 6.07482 2.5574H10.314V5.94872H5.22698V3.40524ZM8.61831 16.1227C7.68332 16.1227 6.92267 15.362 6.92267 14.427C6.92267 13.492 7.68332 12.7314 8.61831 12.7314C9.55332 12.7314 10.314 13.492 10.314 14.427C10.314 15.362 9.55332 16.1227 8.61831 16.1227ZM19.3574 16.1227C18.4224 16.1227 17.6618 15.362 17.6618 14.427C17.6618 13.492 18.4224 12.7314 19.3574 12.7314C20.2924 12.7314 21.053 13.492 21.053 14.427C21.053 15.362 20.2924 16.1227 19.3574 16.1227ZM22.7487 12.7314H22.2925C21.7051 11.7187 20.6099 11.0357 19.3574 11.0357C18.1049 11.0357 17.0097 11.7187 16.4224 12.7314H11.5533C10.966 11.7187 9.87074 11.0357 8.61831 11.0357C7.36583 11.0357 6.27058 11.7187 5.68325 12.7314H5.22703V10.1879V7.64438C6.60959 7.64438 20.9931 7.64438 21.9009 7.64438C22.3684 7.64438 22.7488 8.02475 22.7488 8.49229L22.7487 12.7314Z" fill="white"/>
<path d="M14.5533 9.34003H12.8576C12.3894 9.34003 12.0098 9.71963 12.0098 10.1879C12.0098 10.6561 12.3894 11.0357 12.8576 11.0357H14.5533C15.0214 11.0357 15.4011 10.6562 15.4011 10.1879C15.4011 9.71963 15.0215 9.34003 14.5533 9.34003Z" fill="white"/>
</svg>
